<svg xmlns="http://www.w3.org/2000/svg" width="114.421" height="119.615" viewBox="0 0 114.421 119.615">
  <g id="Footer_Loogo" data-name="Footer Loogo" transform="translate(-151.161 -147.04)">
    <g id="Group_3125" data-name="Group 3125" transform="translate(151.161 242.235)">
      <path id="Path_2798" data-name="Path 2798" d="M129.66,544.38a8.013,8.013,0,0,0-6.555-3.024,9.159,9.159,0,0,0-6.144,2.521c-.044-.051-.088-.1-.132-.15a7.964,7.964,0,0,0-6.073-2.371,8.6,8.6,0,0,0-5.8,2.427,4.573,4.573,0,0,0-3.633-2.427h0a2.227,2.227,0,0,0-2.367,2.076v.031l-.007.06v.061a2.4,2.4,0,0,0,.585,1.566,2.137,2.137,0,0,0,1.262.741,3.629,3.629,0,0,1,.255.31,7.275,7.275,0,0,1,.782,1.542l-.242.429a26.326,26.326,0,0,0-2.177,5.5,21.228,21.228,0,0,0-.806,5.545,9.173,9.173,0,0,0,.8,4.085,3.952,3.952,0,0,0,3.752,2.449,4.5,4.5,0,0,0,1.524-.3,3.922,3.922,0,0,0,1.7-1.3,7.458,7.458,0,0,0,1.192-2.445,14.493,14.493,0,0,0,.533-3.884,29.568,29.568,0,0,0-.327-4.955,39.073,39.073,0,0,0-.906-4.484,11.964,11.964,0,0,1,1.661-1.657,3.355,3.355,0,0,1,2.22-.809A3.566,3.566,0,0,1,114,547.453a23.879,23.879,0,0,0-2.187,4.942,17.038,17.038,0,0,0-.846,5.077,7.562,7.562,0,0,0,.831,3.8,4.2,4.2,0,0,0,3.778,2.224,4.39,4.39,0,0,0,3.571-1.742c1.048-1.321,1.524-3.236,1.434-5.847a26.6,26.6,0,0,0-.355-3.324c-.192-1.158-.447-2.369-.755-3.6l-.218-.871h-.061a10.958,10.958,0,0,1,1.621-1.426,3.8,3.8,0,0,1,2.3-.745,3.623,3.623,0,0,1,3.012,1.329,6.589,6.589,0,0,1,1.2,2.439,18.011,18.011,0,0,1,.558,3.326,29.573,29.573,0,0,1,.056,3.541c-.057,1.179-.14,2.259-.249,3.207s-.276,2.036-.493,3.237a2.178,2.178,0,0,0,.3,1.712,2.3,2.3,0,0,0,1.4,1l.137.035h.369a2.347,2.347,0,0,0,1.386-.446,2.287,2.287,0,0,0,.857-1.239l.044-.156v-.09c.015-.092.046-.26.093-.506.077-.41.164-.923.262-1.574s.2-1.4.289-2.254c.1-.871.166-1.807.2-2.773C132.729,551,131.791,546.971,129.66,544.38Zm-25.592,17.05q-.4.908-.907.907-.624,0-.878-.992a8.529,8.529,0,0,1-.256-2.125,18.039,18.039,0,0,1,.511-4.028A19.67,19.67,0,0,1,104.012,551q.339,1.7.538,3.456a22.037,22.037,0,0,1,.14,3.286A10.45,10.45,0,0,1,104.068,561.43Zm12.861-2.861a4.081,4.081,0,0,1-.51,1.1,1.072,1.072,0,0,1-.849.4.753.753,0,0,1-.623-.283,2.293,2.293,0,0,1-.369-.709,3.418,3.418,0,0,1-.171-.879c-.019-.3-.029-.546-.029-.736a13.239,13.239,0,0,1,.511-3.456,17.089,17.089,0,0,1,1.415-3.571,28.108,28.108,0,0,1,.849,5.552,7.782,7.782,0,0,1-.225,2.58Z" transform="translate(-18.134 -541.347)" fill="#e30303"/>
      <path id="Path_2799" data-name="Path 2799" d="M99.31,556.77a1.779,1.779,0,0,0-1.5-.295,2.073,2.073,0,0,0-1.2.821l-.014.019-.013.021a7.233,7.233,0,0,1-1.839,2.024,10.852,10.852,0,0,1-2.277,1.286,8.725,8.725,0,0,1-2.319.607,11.169,11.169,0,0,1-1.26.075,8.769,8.769,0,0,1-.926-.047,5.627,5.627,0,0,1-2.5-.853l.226-.073a12.931,12.931,0,0,0,1.68-.7,15.288,15.288,0,0,0,3.523-2.291,14.534,14.534,0,0,0,2.7-3.1,10.613,10.613,0,0,0,1.788-5.677,8.054,8.054,0,0,0-1.838-5.17,5.477,5.477,0,0,0-2.528-1.633,6.1,6.1,0,0,0-1.808-.268,7.134,7.134,0,0,0-1.356.133,8.913,8.913,0,0,0-4.79,2.823,15.289,15.289,0,0,0-3.395,6.407,15.8,15.8,0,0,0-.544,5.564v.056l.057.347.006.044a1.938,1.938,0,0,0-.715.241,1.823,1.823,0,0,0-.653.635,2.055,2.055,0,0,0-.75-.993A1.8,1.8,0,0,0,76,556.423a1.822,1.822,0,0,0-.447.056,2.061,2.061,0,0,0-1.2.821l-.015.019-.013.021a7.216,7.216,0,0,1-1.839,2.024,10.8,10.8,0,0,1-2.277,1.287,8.749,8.749,0,0,1-2.32.607,11.444,11.444,0,0,1-1.259.076,9.036,9.036,0,0,1-.925-.048,5.623,5.623,0,0,1-2.5-.853l.225-.073a12.882,12.882,0,0,0,1.681-.7,15.29,15.29,0,0,0,3.523-2.291,14.509,14.509,0,0,0,2.7-3.1,10.614,10.614,0,0,0,1.789-5.677,8.049,8.049,0,0,0-1.838-5.169,5.465,5.465,0,0,0-2.53-1.633,6.063,6.063,0,0,0-1.807-.269,7.143,7.143,0,0,0-1.357.133,8.915,8.915,0,0,0-4.79,2.823,15.288,15.288,0,0,0-3.393,6.407,15.83,15.83,0,0,0-.545,5.564v.056l.058.346.006.044a1.933,1.933,0,0,0-.715.241,1.839,1.839,0,0,0-.887,1.179,1.907,1.907,0,0,0,.194,1.438,1.836,1.836,0,0,0,1.177.886,14.9,14.9,0,0,0,1.751.32l.144.218a8.928,8.928,0,0,0,6.707,3.961h.089c.132,0,.289.008.473.024.247.022.492.033.733.033a16.113,16.113,0,0,0,2.265-.186,13.059,13.059,0,0,0,8.755-5.571l.015-.026a1.875,1.875,0,0,0,.15.327,1.834,1.834,0,0,0,1.174.886,14.875,14.875,0,0,0,1.752.32l.144.218a8.924,8.924,0,0,0,6.708,3.96h.088c.132,0,.289.008.473.025q.371.033.732.033A16.188,16.188,0,0,0,91.09,565a13.061,13.061,0,0,0,8.757-5.571,1.761,1.761,0,0,0,.276-1.478A2.051,2.051,0,0,0,99.31,556.77Zm-8.985-4.608a10.921,10.921,0,0,1-3.3,3.266,10.237,10.237,0,0,1-3.88,1.566,9.57,9.57,0,0,1,.2-5.068,12.028,12.028,0,0,1,2.526-4.8,6.29,6.29,0,0,1,1.515-1.244,4.336,4.336,0,0,1,1.21-.467l.053-.011.051-.017a.441.441,0,0,1,.129-.019h.372a1.687,1.687,0,0,1,1.362.534,3.64,3.64,0,0,1,.857,1.713,5.347,5.347,0,0,1,0,1.779,6.443,6.443,0,0,1-.486,1.589A11.529,11.529,0,0,1,90.325,552.162Zm-22.224,0a10.909,10.909,0,0,1-3.3,3.266,10.233,10.233,0,0,1-3.879,1.566,9.581,9.581,0,0,1,.2-5.068,12.028,12.028,0,0,1,2.526-4.8,6.31,6.31,0,0,1,1.515-1.244,4.342,4.342,0,0,1,1.209-.467l.054-.011.051-.017a.451.451,0,0,1,.129-.019h.374a1.683,1.683,0,0,1,1.361.534,3.629,3.629,0,0,1,.855,1.713,5.292,5.292,0,0,1,0,1.779,6.444,6.444,0,0,1-.486,1.589A11.531,11.531,0,0,1,68.1,552.162Z" transform="translate(-20.568 -541.337)" fill="#e30303"/>
      <path id="Path_2802" data-name="Path 2802" d="M53.473,544.38a8.016,8.016,0,0,0-6.556-3.024,9.16,9.16,0,0,0-6.144,2.521c-.045-.051-.089-.1-.133-.15a7.966,7.966,0,0,0-6.076-2.371,8.594,8.594,0,0,0-5.8,2.427,4.572,4.572,0,0,0-3.63-2.427h0a2.225,2.225,0,0,0-2.368,2.072l0,.036-.006.06v.06a2.39,2.39,0,0,0,.586,1.568,2.1,2.1,0,0,0,1.261.741,3.71,3.71,0,0,1,.252.308,7.2,7.2,0,0,1,.782,1.542l-.241.429a26.326,26.326,0,0,0-2.177,5.5,21.227,21.227,0,0,0-.8,5.545,9.172,9.172,0,0,0,.8,4.085,3.949,3.949,0,0,0,3.75,2.45,4.5,4.5,0,0,0,1.524-.3,3.915,3.915,0,0,0,1.7-1.3,7.449,7.449,0,0,0,1.192-2.445,14.407,14.407,0,0,0,.533-3.883,29.681,29.681,0,0,0-.326-4.954,39,39,0,0,0-.907-4.483,12.025,12.025,0,0,1,1.661-1.658,3.356,3.356,0,0,1,2.212-.812,3.568,3.568,0,0,1,3.241,1.519,23.9,23.9,0,0,0-2.187,4.944,17.039,17.039,0,0,0-.846,5.077,7.542,7.542,0,0,0,.832,3.8,4.2,4.2,0,0,0,3.777,2.225,4.392,4.392,0,0,0,3.571-1.742c1.048-1.321,1.519-3.236,1.433-5.847a26.831,26.831,0,0,0-.355-3.325c-.192-1.156-.447-2.368-.755-3.6l-.218-.871H42.99a10.9,10.9,0,0,1,1.621-1.426,3.794,3.794,0,0,1,2.3-.745,3.618,3.618,0,0,1,3.01,1.329,6.567,6.567,0,0,1,1.2,2.439,17.919,17.919,0,0,1,.558,3.326,29.351,29.351,0,0,1,.055,3.541c-.056,1.179-.139,2.259-.249,3.206s-.275,2.036-.492,3.237a2.173,2.173,0,0,0,.3,1.712,2.306,2.306,0,0,0,1.4,1l.137.035h.369a2.338,2.338,0,0,0,1.4-.457,2.283,2.283,0,0,0,.857-1.239l.044-.155v-.091c.015-.091.046-.26.093-.506.077-.409.164-.923.262-1.573s.2-1.4.29-2.255c.1-.87.165-1.807.2-2.772C56.541,551,55.6,546.971,53.473,544.38ZM27.88,561.43q-.4.908-.907.907-.623,0-.877-.992a8.53,8.53,0,0,1-.257-2.125,17.979,17.979,0,0,1,.511-4.028A19.664,19.664,0,0,1,27.823,551q.341,1.7.539,3.456a22.321,22.321,0,0,1,.143,3.286A10.475,10.475,0,0,1,27.88,561.43Zm12.864-2.86a4.1,4.1,0,0,1-.51,1.1,1.073,1.073,0,0,1-.849.4.753.753,0,0,1-.623-.283,2.29,2.29,0,0,1-.369-.709,3.461,3.461,0,0,1-.169-.879q-.029-.451-.029-.736a13.2,13.2,0,0,1,.51-3.456,17.148,17.148,0,0,1,1.415-3.571,27.955,27.955,0,0,1,.849,5.552A7.774,7.774,0,0,1,40.744,558.57Z" transform="translate(-22.414 -541.347)" fill="#e30303"/>
    </g>
    <g id="Group_3091" data-name="Group 3091" transform="translate(180.725 147.04)">
      <path id="Path_2815" data-name="Path 2815" d="M49.945,55.1H47.95c-18.134-.433-23.264,5.425-16.413,24.129,1.425,3.853.718,7.705-1.288,8.856-2.28,1.425-5.71,1.425-7.568-3.283-5.848-15.273-7.853-33.122,9.278-38.4a21.207,21.207,0,0,1-2.143-4.423c-4.855-13.722,3.145-33.7,21.269-33.85C76.354,7.993,85.062,55.1,49.945,55.1Zm1-36.257c-16.413,0-16.128,26.409-.148,26.409C67.794,45.253,62.221,18.844,50.948,18.844Z" transform="translate(-18.479 -8.13)" fill="#e30303"/>
    </g>
  </g>
</svg>
