<svg xmlns="http://www.w3.org/2000/svg" width="125.169" height="26.714" viewBox="0 0 125.169 26.714">
  <g id="meemLogo" transform="translate(-391.583 186.796)">
    <path id="Path_2798" data-name="Path 2798" d="M132.577,544.665a8.765,8.765,0,0,0-7.17-3.308,10.02,10.02,0,0,0-6.721,2.758c-.049-.055-.1-.111-.144-.164a8.713,8.713,0,0,0-6.643-2.594,9.41,9.41,0,0,0-6.343,2.655,5,5,0,0,0-3.975-2.655h0a2.437,2.437,0,0,0-2.589,2.271v.034l-.008.066v.067a2.628,2.628,0,0,0,.64,1.713,2.337,2.337,0,0,0,1.381.811,3.951,3.951,0,0,1,.278.34,7.956,7.956,0,0,1,.855,1.687l-.265.469a28.8,28.8,0,0,0-2.381,6.02,23.222,23.222,0,0,0-.882,6.066,10.034,10.034,0,0,0,.877,4.469,4.323,4.323,0,0,0,4.1,2.679,4.925,4.925,0,0,0,1.667-.323,4.291,4.291,0,0,0,1.857-1.42,8.159,8.159,0,0,0,1.3-2.675,15.855,15.855,0,0,0,.583-4.248,32.346,32.346,0,0,0-.358-5.42,42.737,42.737,0,0,0-.991-4.906,13.081,13.081,0,0,1,1.817-1.813,3.67,3.67,0,0,1,2.429-.885,3.9,3.9,0,0,1,3.546,1.667,26.123,26.123,0,0,0-2.393,5.406,18.639,18.639,0,0,0-.925,5.554,8.271,8.271,0,0,0,.909,4.158,4.6,4.6,0,0,0,4.133,2.433,4.8,4.8,0,0,0,3.906-1.905c1.146-1.445,1.667-3.54,1.569-6.4a29.092,29.092,0,0,0-.388-3.636c-.21-1.266-.489-2.591-.826-3.943l-.238-.953h-.067a11.984,11.984,0,0,1,1.773-1.56,4.151,4.151,0,0,1,2.514-.815,3.964,3.964,0,0,1,3.3,1.454,7.207,7.207,0,0,1,1.309,2.668,19.7,19.7,0,0,1,.61,3.638,32.346,32.346,0,0,1,.061,3.874c-.062,1.289-.154,2.471-.273,3.508s-.3,2.228-.54,3.541a2.382,2.382,0,0,0,.327,1.873,2.517,2.517,0,0,0,1.531,1.1l.15.038h.4a2.567,2.567,0,0,0,1.516-.488,2.5,2.5,0,0,0,.937-1.355l.049-.171v-.1c.016-.1.051-.284.1-.553.084-.448.179-1.01.287-1.721s.214-1.533.317-2.466c.106-.953.181-1.977.224-3.034C135.935,551.912,134.909,547.5,132.577,544.665Zm-28,18.651q-.433.993-.992.992-.683,0-.96-1.085a9.33,9.33,0,0,1-.28-2.325,19.735,19.735,0,0,1,.559-4.407,21.515,21.515,0,0,1,1.612-4.586q.371,1.858.588,3.78a24.106,24.106,0,0,1,.154,3.594A11.431,11.431,0,0,1,104.581,563.317Zm14.069-3.13a4.466,4.466,0,0,1-.558,1.207,1.172,1.172,0,0,1-.929.436.824.824,0,0,1-.682-.31,2.508,2.508,0,0,1-.4-.775,3.738,3.738,0,0,1-.187-.961q-.031-.494-.031-.805a14.484,14.484,0,0,1,.559-3.78,18.7,18.7,0,0,1,1.548-3.906,30.748,30.748,0,0,1,.929,6.074,8.512,8.512,0,0,1-.246,2.823Z" transform="translate(381.008 -728.143)" fill="#e30303"/>
    <path id="Path_2799" data-name="Path 2799" d="M103.447,558.2a1.946,1.946,0,0,0-1.644-.322,2.268,2.268,0,0,0-1.31.9l-.015.021-.014.023a7.912,7.912,0,0,1-2.012,2.214,11.871,11.871,0,0,1-2.491,1.407,9.545,9.545,0,0,1-2.537.664,12.219,12.219,0,0,1-1.378.082,9.6,9.6,0,0,1-1.013-.051,6.155,6.155,0,0,1-2.739-.934l.247-.08a14.135,14.135,0,0,0,1.838-.768,16.725,16.725,0,0,0,3.854-2.506,15.9,15.9,0,0,0,2.954-3.389,11.61,11.61,0,0,0,1.956-6.21,8.81,8.81,0,0,0-2.01-5.656,5.991,5.991,0,0,0-2.766-1.786,6.675,6.675,0,0,0-1.978-.293,7.8,7.8,0,0,0-1.484.146,9.751,9.751,0,0,0-5.24,3.088,16.725,16.725,0,0,0-3.713,7.009,17.289,17.289,0,0,0-.6,6.087v.061l.062.379.007.049a2.12,2.12,0,0,0-.782.263,2,2,0,0,0-.714.694,2.249,2.249,0,0,0-.82-1.086,1.97,1.97,0,0,0-1.158-.384,2,2,0,0,0-.489.061,2.254,2.254,0,0,0-1.309.9l-.016.021-.014.023a7.9,7.9,0,0,1-2.012,2.214,11.817,11.817,0,0,1-2.491,1.407,9.567,9.567,0,0,1-2.538.664,12.464,12.464,0,0,1-1.377.083,9.861,9.861,0,0,1-1.012-.052,6.151,6.151,0,0,1-2.739-.934l.246-.08a14.092,14.092,0,0,0,1.839-.768,16.723,16.723,0,0,0,3.854-2.506,15.872,15.872,0,0,0,2.954-3.389,11.612,11.612,0,0,0,1.957-6.21A8.805,8.805,0,0,0,72.8,543.6a5.977,5.977,0,0,0-2.767-1.786,6.631,6.631,0,0,0-1.977-.295,7.816,7.816,0,0,0-1.485.146,9.751,9.751,0,0,0-5.24,3.088,16.723,16.723,0,0,0-3.712,7.009,17.316,17.316,0,0,0-.6,6.086v.061l.064.379.007.049a2.113,2.113,0,0,0-.782.263,2.011,2.011,0,0,0-.971,1.289,2.086,2.086,0,0,0,.213,1.574,2.009,2.009,0,0,0,1.287.969,16.316,16.316,0,0,0,1.916.35l.157.238a9.766,9.766,0,0,0,7.337,4.333h.1c.144,0,.317.009.518.027.27.024.538.036.8.036a17.629,17.629,0,0,0,2.478-.2,14.285,14.285,0,0,0,9.577-6.095l.016-.029a2.047,2.047,0,0,0,.164.358,2.005,2.005,0,0,0,1.285.969,16.291,16.291,0,0,0,1.917.35l.157.238a9.762,9.762,0,0,0,7.338,4.331h.1c.144,0,.317.009.518.028q.406.036.8.036a17.71,17.71,0,0,0,2.446-.2,14.288,14.288,0,0,0,9.579-6.095,1.927,1.927,0,0,0,.3-1.616A2.243,2.243,0,0,0,103.447,558.2Zm-9.829-5.041a11.946,11.946,0,0,1-3.609,3.572,11.2,11.2,0,0,1-4.245,1.713,10.469,10.469,0,0,1,.224-5.544,13.158,13.158,0,0,1,2.764-5.25,6.88,6.88,0,0,1,1.657-1.361,4.745,4.745,0,0,1,1.324-.511l.058-.012.055-.018a.479.479,0,0,1,.141-.021h.407a1.845,1.845,0,0,1,1.49.585,3.982,3.982,0,0,1,.937,1.874,5.85,5.85,0,0,1,0,1.946,7.05,7.05,0,0,1-.531,1.738A12.614,12.614,0,0,1,93.618,553.162Zm-24.311,0a11.933,11.933,0,0,1-3.609,3.572,11.194,11.194,0,0,1-4.244,1.713,10.481,10.481,0,0,1,.223-5.544,13.158,13.158,0,0,1,2.764-5.25,6.9,6.9,0,0,1,1.657-1.361,4.752,4.752,0,0,1,1.323-.511l.059-.012.055-.018a.49.49,0,0,1,.141-.021h.409a1.841,1.841,0,0,1,1.489.585,3.97,3.97,0,0,1,.936,1.874,5.789,5.789,0,0,1,0,1.946,7.05,7.05,0,0,1-.531,1.738A12.614,12.614,0,0,1,69.307,553.162Z" transform="translate(374.275 -728.116)" fill="#e30303"/>
    <path id="Path_2802" data-name="Path 2802" d="M56.39,544.665a8.768,8.768,0,0,0-7.171-3.308,10.02,10.02,0,0,0-6.721,2.758c-.05-.055-.1-.111-.146-.164a8.715,8.715,0,0,0-6.647-2.594,9.4,9.4,0,0,0-6.342,2.655,5,5,0,0,0-3.971-2.655h0a2.434,2.434,0,0,0-2.59,2.267l0,.039-.007.066v.066a2.615,2.615,0,0,0,.641,1.716,2.294,2.294,0,0,0,1.38.811,4.076,4.076,0,0,1,.276.337,7.875,7.875,0,0,1,.855,1.687l-.263.469a28.8,28.8,0,0,0-2.381,6.02,23.221,23.221,0,0,0-.88,6.066,10.034,10.034,0,0,0,.877,4.469,4.32,4.32,0,0,0,4.1,2.68,4.926,4.926,0,0,0,1.667-.323,4.283,4.283,0,0,0,1.857-1.42,8.149,8.149,0,0,0,1.3-2.675,15.761,15.761,0,0,0,.583-4.247,32.468,32.468,0,0,0-.357-5.42,42.667,42.667,0,0,0-.992-4.9,13.15,13.15,0,0,1,1.817-1.814,3.672,3.672,0,0,1,2.419-.888,3.9,3.9,0,0,1,3.546,1.661,26.142,26.142,0,0,0-2.393,5.408,18.64,18.64,0,0,0-.925,5.554,8.25,8.25,0,0,0,.91,4.157,4.591,4.591,0,0,0,4.132,2.434,4.8,4.8,0,0,0,3.906-1.905c1.146-1.445,1.661-3.54,1.568-6.4a29.351,29.351,0,0,0-.388-3.637c-.21-1.265-.489-2.59-.826-3.942l-.238-.953h-.067a11.917,11.917,0,0,1,1.774-1.56,4.151,4.151,0,0,1,2.514-.815,3.958,3.958,0,0,1,3.293,1.453,7.183,7.183,0,0,1,1.31,2.668,19.6,19.6,0,0,1,.61,3.638,32.106,32.106,0,0,1,.06,3.874c-.061,1.289-.153,2.471-.273,3.508s-.3,2.228-.538,3.541A2.378,2.378,0,0,0,54,566.92a2.522,2.522,0,0,0,1.53,1.1l.15.038h.4a2.557,2.557,0,0,0,1.53-.5,2.5,2.5,0,0,0,.937-1.355l.049-.17v-.1c.016-.1.051-.284.1-.553.084-.447.179-1.01.287-1.72s.214-1.534.318-2.467c.105-.952.18-1.977.223-3.033C59.747,551.912,58.721,547.5,56.39,544.665Zm-28,18.651q-.435.993-.992.992-.681,0-.959-1.085a9.331,9.331,0,0,1-.281-2.325,19.668,19.668,0,0,1,.559-4.407,21.512,21.512,0,0,1,1.611-4.586q.373,1.858.589,3.78a24.415,24.415,0,0,1,.156,3.594A11.459,11.459,0,0,1,28.393,563.317Zm14.073-3.129a4.487,4.487,0,0,1-.558,1.209,1.174,1.174,0,0,1-.929.434.824.824,0,0,1-.682-.31,2.506,2.506,0,0,1-.4-.775,3.786,3.786,0,0,1-.185-.961q-.031-.494-.031-.805a14.434,14.434,0,0,1,.558-3.78,18.757,18.757,0,0,1,1.548-3.906,30.579,30.579,0,0,1,.929,6.074A8.5,8.5,0,0,1,42.466,560.188Z" transform="translate(369.17 -728.143)" fill="#e30303"/>
  </g>
</svg>
