<?xml version="1.0" encoding="utf-8"?>
<!-- Generator: Adobe Illustrator 22.1.0, SVG Export Plug-In . SVG Version: 6.00 Build 0)  -->
<svg version="1.1" id="Group_3091" xmlns="http://www.w3.org/2000/svg" xmlns:xlink="http://www.w3.org/1999/xlink" x="0px" y="0px"
	 viewBox="0 0 53.4 78.8" style="enable-background:new 0 0 53.4 78.8;" xml:space="preserve">
<style type="text/css">
	.st0{fill:#FFFFFF;}
</style>
<path id="Path_2815" class="st0" d="M30.7,45.8h-1.9c-17.7-0.4-22.7,5.3-16,23.5c1.4,3.8,0.7,7.5-1.3,8.6c-2.2,1.4-5.6,1.4-7.4-3.2
	c-5.7-14.9-7.7-32.3,9.1-37.5c-0.9-1.4-1.6-2.8-2.1-4.3C6.3,19.6,14.1,0.1,31.8,0C56.5-0.1,64.9,45.8,30.7,45.8z M31.7,10.5
	c-16,0-15.7,25.8-0.1,25.8C48.1,36.2,42.7,10.5,31.7,10.5z"/>
</svg>
